# xmcd
# 
# Track frame offsets:
#     150
#     4805
#     106058
#     219237
# 
# Disc length: 4424
# 
# Revision: 0
# Processed by: cddbd v1.5.2PL0 Copyright (c) Steve Scherf et al.
# Submitted via: fre:ac v1.0.17
# 
DISCID=26114604
DTITLE=Terry Brooks - Bearers of The Black Staff
DYEAR=2010
DGENRE=Audio Book
TTITLE0=010
TTITLE1=011
TTITLE2=012
TTITLE3=013
EXTD=
EXTT0=
EXTT1=
EXTT2=
EXTT3=
PLAYORDER=
